<?xml version="1.0" standalone="no"?>
<!DOCTYPE svg PUBLIC "-//W3C//DTD SVG 20010904//EN"
 "http://www.w3.org/TR/2001/REC-SVG-20010904/DTD/svg10.dtd">
<svg version="1.0" xmlns="http://www.w3.org/2000/svg"
 width="958.000000pt" height="958.000000pt" viewBox="0 0 958.000000 958.000000"
 preserveAspectRatio="xMidYMid meet">
<metadata>
Created by potrace 1.11, written by Peter Selinger 2001-2013
</metadata>
<g transform="translate(0.000000,958.000000) scale(0.100000,-0.100000)"
fill="#000000" stroke="none">
<path d="M4508 9574 c-2 -2 -38 -6 -80 -8 -88 -5 -179 -14 -228 -22 -38 -6
-60 -9 -130 -18 -25 -3 -81 -12 -125 -20 -44 -9 -91 -17 -105 -20 -21 -4 -79
-17 -223 -51 -10 -2 -27 -7 -37 -10 -10 -3 -29 -8 -42 -11 -48 -11 -116 -31
-218 -66 -47 -16 -92 -30 -100 -32 -8 -2 -46 -16 -85 -31 -38 -15 -76 -27 -82
-28 -7 0 -13 -4 -13 -9 0 -4 -7 -8 -15 -8 -9 0 -46 -14 -83 -31 -37 -17 -71
-32 -77 -33 -5 -1 -30 -13 -55 -26 -25 -12 -45 -22 -45 -20 0 5 -80 -35 -83
-42 -2 -5 -12 -8 -23 -8 -10 0 -19 -4 -19 -10 0 -5 -9 -10 -19 -10 -11 0 -21
-3 -23 -7 -1 -5 -37 -25 -78 -47 -467 -240 -973 -648 -1345 -1081 -33 -38 -64
-75 -70 -81 -5 -6 -21 -25 -35 -43 -14 -18 -35 -44 -48 -59 -13 -15 -35 -43
-48 -62 -13 -19 -64 -91 -114 -160 -160 -224 -352 -565 -459 -815 -23 -55 -49
-113 -56 -130 -7 -16 -25 -64 -40 -105 -14 -41 -32 -88 -38 -105 -7 -16 -12
-32 -13 -35 0 -3 -6 -18 -12 -33 -7 -16 -12 -33 -12 -38 0 -5 -9 -38 -21 -72
-12 -34 -23 -69 -25 -77 -2 -8 -15 -60 -30 -115 -14 -55 -27 -107 -29 -115 -2
-8 -10 -46 -19 -85 -17 -77 -25 -115 -31 -160 -3 -16 -7 -39 -9 -50 -11 -57
-23 -140 -31 -220 -3 -27 -8 -63 -10 -80 -14 -101 -20 -253 -20 -490 0 -277 7
-403 31 -585 3 -25 7 -58 9 -75 2 -16 8 -57 14 -90 5 -33 12 -73 15 -90 3 -16
7 -41 10 -55 9 -40 15 -73 21 -105 2 -16 9 -45 14 -62 5 -18 7 -33 4 -33 -3 0
0 -7 7 -15 7 -8 10 -15 7 -15 -4 0 15 -81 43 -175 1 -5 4 -14 5 -20 11 -38
110 -343 116 -355 4 -8 24 -58 45 -110 67 -171 165 -376 263 -550 35 -63 68
-116 73 -118 4 -2 8 -9 8 -15 0 -21 268 -415 310 -457 3 -3 17 -21 31 -40 15
-19 35 -45 45 -57 11 -12 28 -32 38 -45 151 -184 453 -484 631 -626 6 -4 44
-34 85 -67 41 -33 77 -62 80 -65 28 -28 350 -240 470 -309 154 -89 139 -80
262 -142 57 -28 119 -59 138 -69 19 -9 76 -34 125 -55 50 -20 101 -41 115 -47
100 -42 408 -146 480 -163 8 -2 51 -13 96 -24 45 -12 92 -24 105 -27 13 -2 44
-9 69 -14 25 -5 56 -12 70 -15 14 -3 39 -8 55 -10 17 -3 37 -8 45 -10 8 -2 40
-7 70 -10 30 -4 57 -8 60 -10 3 -2 33 -6 65 -10 33 -4 71 -8 85 -10 35 -5 122
-14 205 -21 192 -17 665 -6 885 21 25 3 65 7 90 10 67 8 262 42 375 65 132 28
124 26 175 40 25 7 52 13 60 15 8 2 56 15 105 30 50 14 95 27 100 28 6 2 15 5
20 8 6 4 24 9 40 13 44 11 278 97 290 107 5 5 15 9 22 9 7 0 47 16 89 35 41
19 78 35 80 35 12 0 364 181 409 210 17 11 37 23 45 27 182 93 592 396 813
602 142 132 367 369 434 456 5 6 32 39 61 75 29 36 59 74 67 85 9 11 26 34 38
50 13 17 43 59 68 95 24 36 47 67 50 70 3 3 39 59 81 125 217 346 378 683 504
1064 49 145 123 414 138 496 6 35 13 71 26 140 17 83 18 90 25 145 4 29 8 60
10 69 1 9 6 48 10 86 4 39 9 78 11 89 25 137 24 751 -2 961 -3 22 -7 54 -8 70
-4 38 -15 114 -20 140 -2 11 -7 42 -10 68 -4 27 -9 59 -12 70 -2 12 -6 33 -9
47 -8 43 -14 74 -20 100 -3 14 -7 34 -9 45 -25 129 -154 558 -195 650 -12 27
-23 60 -20 60 2 0 -4 14 -13 30 -9 17 -23 46 -31 65 -125 296 -267 561 -430
805 -62 92 -154 221 -172 241 -5 7 -19 25 -30 40 -25 35 -200 244 -250 299
-122 134 -326 331 -425 411 -19 16 -51 43 -70 61 -19 18 -38 33 -42 33 -4 0
-15 8 -25 18 -15 16 -83 67 -253 191 -19 14 -38 26 -42 26 -3 0 -17 9 -30 20
-13 11 -70 49 -128 84 -58 35 -116 71 -130 79 -14 9 -27 15 -30 15 -3 0 -16 7
-30 17 -40 28 -244 131 -375 189 -66 29 -133 59 -150 66 -46 20 -271 101 -350
125 -38 12 -77 24 -85 27 -8 3 -19 7 -25 8 -5 2 -30 8 -55 15 -25 7 -52 14
-60 16 -8 2 -69 17 -135 34 -66 16 -138 32 -160 35 -22 3 -49 9 -60 12 -11 3
-29 7 -40 9 -11 1 -33 5 -50 7 -38 7 -99 16 -145 22 -19 3 -48 7 -65 10 -16 2
-64 7 -105 11 -41 3 -84 8 -95 11 -24 6 -642 13 -647 7z"/>
</g>
</svg>
